<mxfile host="app.diagrams.net" modified="2023-04-06T19:16:15.306Z" agent="Mozilla/5.0 (X11; Linux x86_64) AppleWebKit/537.36 (KHTML, like Gecko) Chrome/111.0.0.0 Safari/537.36" etag="sQAz2GQDlsdjC-fqWWr_" version="21.1.4" type="github">
  <diagram name="Page-1" id="yA7Nq4QiK2JD9FKmeiPI">
    <mxGraphModel dx="1434" dy="809" grid="1" gridSize="10" guides="1" tooltips="1" connect="1" arrows="1" fold="1" page="1" pageScale="1" pageWidth="850" pageHeight="1100" math="0" shadow="0">
      <root>
        <mxCell id="0" />
        <mxCell id="1" parent="0" />
      </root>
    </mxGraphModel>
  </diagram>
</mxfile>
